<svg width="170" height="38" viewBox="0 0 170 38" fill="none"
	xmlns="http://www.w3.org/2000/svg">
	<path d="M0 2.3558V36.7505H28.9744V29.7302H8.95468V0L0 2.3558Z" fill="#E3E3E3"/>
	<path d="M44.6389 37.0331C48.4033 37.0331 51.9966 35.8081 54.6773 33.5937C57.4151 31.3792 58.898 28.4109 58.898 25.2541V10.5068H50.3425V25.2541C50.3425 27.8926 47.7759 29.9657 44.6389 29.9657C41.4449 29.9657 38.9353 27.8926 38.9353 25.2541V10.5068H30.3799V25.2541C30.3799 28.4109 31.8628 31.3792 34.5435 33.5937C37.2242 35.8081 40.8175 37.0331 44.6389 37.0331Z" fill="#E3E3E3"/>
	<path d="M63.1475 25.1599V36.7504H71.7029V25.1599C71.7029 20.5896 76.2088 16.9146 81.6842 16.9146V9.84717C79.1746 9.84717 76.7791 10.2241 74.4977 11.0251C72.2733 11.826 70.277 12.9097 68.6229 14.3232C66.9118 15.7367 65.543 17.3857 64.6304 19.1761C63.6608 21.0608 63.1475 23.0868 63.1475 25.1599Z" fill="#E3E3E3"/>
	<path d="M125.688 13.9465C123.064 11.7792 119.642 10.6013 115.992 10.6013C112.399 10.6013 109.091 11.7321 106.524 13.7109C103.957 11.7321 100.649 10.6013 97.1129 10.6013C95.2878 10.6013 93.5196 10.884 91.9226 11.4494V10.2244H83.3672V36.7507H91.9226V21.9563C91.9226 19.6005 94.2611 17.6687 97.1129 17.6687C99.9077 17.6687 102.246 19.6005 102.246 21.9563V36.7507H110.802V21.9563C110.802 19.6005 113.14 17.6687 115.992 17.6687C118.787 17.6687 121.125 19.6005 121.125 21.9563V36.7507H129.681V21.9563C129.681 18.9408 128.255 16.0668 125.688 13.9465Z" fill="#E3E3E3"/>
	<path d="M134.116 11.9205V36.7506H142.729V9.5647L134.116 11.9205Z" fill="#E3E3E3"/>
	<path d="M146.216 37.0331H159.562C165.323 37.0331 170 33.1696 170 28.4109C170 23.6522 165.323 19.7415 159.562 19.7415H157.167C156.368 19.7415 155.684 19.2233 155.684 18.5165C155.684 17.8569 156.368 17.2915 157.167 17.2915H169.087V9.89429H157.167C151.406 9.89429 146.729 13.7578 146.729 18.5165C146.729 23.2752 151.406 27.1387 157.167 27.1387H159.562C160.361 27.1387 161.045 27.7041 161.045 28.4109C161.045 29.0705 160.418 29.6359 159.562 29.6359H146.216V37.0331Z" fill="#E3E3E3"/>
</svg>
